<svg width="20" height="19" viewBox="0 0 20 19" fill="none" xmlns="http://www.w3.org/2000/svg">
<path d="M9.44974 1.26464C9.69994 0.851593 10.2992 0.851593 10.5494 1.26464L13.2573 5.73499C13.3469 5.88278 13.4921 5.98831 13.6603 6.02778L18.7487 7.22175C19.2188 7.33207 19.404 7.90202 19.0885 8.26762L15.6737 12.2244C15.5608 12.3552 15.5054 12.526 15.5198 12.6982L15.9567 17.9064C15.997 18.3877 15.5122 18.7399 15.067 18.5528L10.2486 16.5279C10.0893 16.4609 9.90981 16.4609 9.75052 16.5279L4.93216 18.5528C4.48696 18.7399 4.00213 18.3877 4.04249 17.9064L4.47935 12.6982C4.49379 12.526 4.43831 12.3552 4.32542 12.2244L0.910658 8.26762C0.595141 7.90202 0.780329 7.33207 1.25048 7.22175L6.33883 6.02778C6.50705 5.98831 6.6523 5.88278 6.74182 5.73499L9.44974 1.26464Z" fill="#252B40"/>
</svg>
