<svg width="29" height="29" viewBox="0 0 29 29" fill="none" xmlns="http://www.w3.org/2000/svg">
<path d="M13.6447 1.41199C14.0339 0.76947 14.9661 0.76947 15.3553 1.41199L19.5676 8.36587C19.7069 8.59577 19.9328 8.75992 20.1945 8.82132L28.1097 10.6786C28.8411 10.8502 29.1291 11.7368 28.6383 12.3055L23.3265 18.4605C23.1509 18.664 23.0646 18.9296 23.087 19.1975L23.7666 27.2992C23.8294 28.0478 23.0752 28.5957 22.3827 28.3047L14.8874 25.1548C14.6396 25.0507 14.3604 25.0507 14.1126 25.1548L6.61735 28.3047C5.92481 28.5957 5.17063 28.0478 5.23342 27.2992L5.91297 19.1975C5.93544 18.9296 5.84914 18.664 5.67353 18.4605L0.361674 12.3055C-0.12913 11.7368 0.15894 10.8502 0.890288 10.6786L8.8055 8.82132C9.06717 8.75992 9.29311 8.59577 9.43237 8.36587L13.6447 1.41199Z" fill="#252B40"/>
</svg>
