<svg width="32" height="32" viewBox="0 0 32 32" fill="none" xmlns="http://www.w3.org/2000/svg">
<path fill-rule="evenodd" clip-rule="evenodd" d="M0.524589 15.785C0.52459 17.8496 0.943548 19.8174 1.70227 21.6115L1.21781 21.8091C0.433063 19.9535 -5.93662e-07 17.9186 -6.86927e-07 15.785C-1.01113e-06 8.36802 5.23108 2.15176 12.2669 0.500001L12.3888 1.00113C5.58372 2.59873 0.524589 8.61187 0.524589 15.785ZM4.65132 26.1189C7.47799 29.1121 11.5161 30.9848 16 30.9848C24.5468 30.9848 31.4754 24.1796 31.4754 15.7849C31.4754 8.61186 26.4163 2.59873 19.6112 1.00113L19.7331 0.500001C26.7689 2.15176 32 8.36802 32 15.7849C32 24.4641 24.8366 31.5 16 31.5C11.3642 31.5 7.18848 29.5632 4.26671 26.4693L4.65132 26.1189Z" fill="#16CEF0"/>
<path fill-rule="evenodd" clip-rule="evenodd" d="M13.0059 7L10.3324 9.63746L9.96999 9.99495L10.3271 10.3576L12.6345 12.7008C12.1564 13.1146 11.7581 13.6159 11.4655 14.1795H8.74895V9.41406H7.72995V14.689V15.1985H8.23945H11.0731C10.9687 15.5976 10.9131 16.0161 10.9131 16.4475C10.9131 16.6236 10.9224 16.7977 10.9404 16.9691L7.53727 17.7077L7 17.8243L7.15708 18.3512L8.27104 22.0876L9.24756 21.7964L8.29067 18.5869L11.1519 17.9659C11.3632 18.6177 11.7067 19.2112 12.1514 19.7156L10.3256 21.5861L9.98622 21.9338L10.3174 22.2893L12.8423 25L13.588 24.3055L11.3941 21.9502L12.8994 20.4082C13.7491 21.0488 14.811 21.4293 15.9631 21.4293C17.1344 21.4293 18.2126 21.0359 19.0693 20.3757L20.6062 21.9502L18.4124 24.3055L19.158 25L21.683 22.2893L22.0141 21.9338L21.6748 21.5861L19.8097 19.6754C20.2408 19.1759 20.5738 18.5914 20.779 17.9508L23.7097 18.5869L22.7528 21.7964L23.7293 22.0876L24.8433 18.3512L25.0004 17.8243L24.4631 17.7077L20.9873 16.9533C21.0043 16.787 21.013 16.6182 21.013 16.4475C21.013 16.0161 20.9575 15.5976 20.853 15.1985H23.7609H24.2704V14.689V9.41406H23.2514V14.1795H20.4606C20.1762 13.6317 19.7919 13.1426 19.3315 12.7357L21.6732 10.3576L22.0304 9.99495L21.668 9.63746L18.9945 7L18.2789 7.72541L20.59 10.0054L18.9652 11.6555C18.5958 10.3625 17.3914 9.41481 15.9627 9.41481C14.5556 9.41481 13.3661 10.334 12.9775 11.5969L11.4104 10.0054L13.7215 7.72541L13.0059 7ZM15.9626 20.4216C18.1872 20.4216 19.9906 18.6425 19.9906 16.4479C19.9906 14.2533 18.1872 12.4743 15.9626 12.4743C13.738 12.4743 11.9346 14.2533 11.9346 16.4479C11.9346 18.6425 13.738 20.4216 15.9626 20.4216Z" fill="#16CEF0"/>
</svg>
